<?xml version="1.0" encoding="UTF-8"?>
<svg width="1540px" height="443px" viewBox="0 0 1540 443" version="1.1" xmlns="http://www.w3.org/2000/svg" xmlns:xlink="http://www.w3.org/1999/xlink">
    <title>Group</title>
    <g id="brand-refresh" stroke="none" stroke-width="1" fill="none" fill-rule="evenodd">
        <g id="ispect-logo-simplified---test-wip" transform="translate(-230.000000, -189.000000)" fill="#7448FF">
            <g id="Group" transform="translate(230.000000, 189.000000)">
                <path d="M0,69.5198373 L33.5503539,69.5198373 L33.5503539,350 L0,350 L0,69.5198373 Z M165.749152,274.72418 C172.83204,288.930812 183.269823,299.777605 197.062816,307.264885 C210.855808,314.752164 225.394149,318.495747 240.678276,318.495747 C247.761164,318.495747 254.843945,317.343875 261.926833,315.040097 C269.009721,312.736319 275.346947,309.472682 280.9387,305.249089 C286.530454,301.025495 291.096984,295.938061 294.638428,289.986634 C298.179872,284.035207 299.950568,277.219965 299.950568,269.540705 C299.950568,257.253888 296.129593,248.038913 288.48753,241.895504 C280.845467,235.752096 271.432823,230.95263 260.249315,227.496962 C249.065808,224.041295 236.764135,221.065626 223.343926,218.569866 C209.923717,216.074107 197.622044,212.234534 186.438537,207.051033 C175.25503,201.867532 165.842386,194.668333 158.200322,185.45322 C150.558259,176.238107 146.737285,163.18356 146.737285,146.289186 C146.737285,133.234443 149.346731,121.907703 154.565701,112.308627 C159.784671,102.709551 166.587869,94.7424375 174.975499,88.4070474 C183.36313,82.0716573 192.775774,77.3681806 203.213714,74.2964763 C213.651654,71.224772 224.275826,69.6889429 235.08655,69.6889429 C256.335214,69.6889429 274.694529,73.7204943 290.165048,81.7837181 C305.635566,89.8469419 317.657656,102.517532 326.231678,119.795869 L296.03636,138.226002 C289.699039,125.939185 281.777507,116.628221 272.271526,110.292831 C262.765544,103.957441 250.370677,100.789793 235.08655,100.789793 C229.122013,100.789793 222.877982,101.749687 216.354269,103.669502 C209.830557,105.589317 203.959303,108.277018 198.740333,111.732685 C193.521363,115.188353 189.141222,119.603861 185.599778,124.979344 C182.058334,130.354826 180.287639,136.498143 180.287639,143.409478 C180.287639,155.312332 184.108613,164.143349 191.750676,169.902795 C199.392739,175.66224 208.805384,180.173738 219.988891,183.437424 C231.172398,186.70111 243.474071,189.4848 256.89428,191.788578 C270.314489,194.092357 282.616162,197.83594 293.799669,203.019441 C304.983177,208.202942 314.395821,215.690109 322.037884,225.481166 C329.679947,235.272224 333.500921,249.190675 333.500921,267.236938 C333.500921,281.059607 330.98467,293.058272 325.952092,303.233293 C320.919514,313.408313 314.023121,321.951363 305.262707,328.862697 C296.502293,335.774032 286.530482,340.957455 275.346975,344.413123 C264.163467,347.86879 252.420961,349.596598 240.119103,349.596598 C217.752089,349.596598 197.342494,345.181089 178.889707,336.349939 C160.43692,327.518789 146.178163,313.888306 136.113006,295.45808 L165.749152,274.72418 Z M1001.15296,292.578372 C988.10554,312.928413 971.982892,327.518789 952.784538,336.349939 C933.586184,345.181089 912.431034,349.596598 889.318452,349.596598 C869.560923,349.596598 851.667579,346.140982 835.637886,339.229648 C819.608192,332.318313 805.815407,322.623392 794.259116,310.144593 C782.702825,297.665794 773.849348,282.883439 767.698419,265.797084 C761.54749,248.710729 758.472072,229.800833 758.472072,209.066829 C758.472072,189.100751 761.640685,170.670801 767.978005,153.776428 C774.315326,136.882054 783.261998,122.195688 794.818288,109.716889 C806.374579,97.2380907 819.980976,87.4471801 835.637886,80.3438639 C851.294796,73.2405477 868.628972,69.6889429 887.640934,69.6889429 C907.398464,69.6889429 924.825834,73.2405477 939.923569,80.3438639 C955.021304,87.4471801 967.695755,96.8541334 977.947303,108.565006 C988.198852,120.275879 995.933995,133.618394 1001.15296,148.592953 C1006.37193,163.567511 1008.98138,178.733824 1008.98138,194.092345 L1008.98138,218.281896 L792.022426,218.281896 C792.022426,225.577193 793.420343,234.888157 796.21622,246.215067 C799.012097,257.541976 804.137794,268.580748 811.593465,279.331713 C819.049137,290.082678 829.020948,299.297653 841.509198,306.976914 C853.997447,314.656174 870.120095,318.495747 889.877625,318.495747 C907.025669,318.495747 923.614289,314.272217 939.643983,305.82503 C955.673676,297.377844 967.97535,285.859125 976.549372,271.26853 L1001.15296,292.578372 Z M975.431027,187.181045 C975.431027,175.278191 973.101165,164.14343 968.44137,153.776428 C963.781575,143.409426 957.444349,134.29044 949.429503,126.419198 C941.414656,118.547956 931.908817,112.30865 920.911702,107.701094 C909.914586,103.093537 898.265274,100.789793 885.963417,100.789793 C867.697021,100.789793 852.506319,104.629366 840.390853,112.308627 C828.275386,119.987888 818.676353,128.818905 811.593465,138.801944 C804.510578,148.784983 799.478075,158.479904 796.495806,167.886999 C793.513538,177.294093 792.022426,183.725378 792.022426,187.181045 L975.431027,187.181045 Z M1314.2896,303.521264 C1301.61496,319.263748 1287.26301,330.878456 1271.23331,338.365735 C1255.20362,345.853014 1237.86944,349.596598 1219.23027,349.596598 C1199.47274,349.596598 1181.20662,346.140982 1164.43135,339.229648 C1147.65609,332.318313 1133.30414,322.623392 1121.37507,310.144593 C1109.44599,297.665794 1100.12654,282.883439 1093.41644,265.797084 C1086.70633,248.710729 1083.35133,229.992811 1083.35133,209.64277 C1083.35133,189.292729 1086.70633,170.574812 1093.41644,153.488457 C1100.12654,136.402102 1109.44599,121.619746 1121.37507,109.140948 C1133.30414,96.662149 1147.65609,86.9672278 1164.43135,80.0558931 C1181.20662,73.1445584 1199.47274,69.6889429 1219.23027,69.6889429 C1238.24223,69.6889429 1255.85599,73.7204943 1272.07207,81.7837181 C1288.28816,89.8469419 1302.73331,101.173682 1315.40795,115.764277 L1288.56766,136.498177 C1278.87529,125.363249 1268.25112,116.628221 1256.69483,110.292831 C1245.13854,103.957441 1232.65047,100.789793 1219.23027,100.789793 C1203.57336,100.789793 1189.40779,103.669473 1176.73315,109.428919 C1164.05851,115.188364 1153.24795,122.963499 1144.30114,132.754557 C1135.35434,142.545614 1128.55114,154.064332 1123.89134,167.311057 C1119.23155,180.557782 1116.90169,194.668212 1116.90169,209.64277 C1116.90169,224.617329 1119.23155,238.727759 1123.89134,251.974484 C1128.55114,265.221208 1135.35434,276.739927 1144.30114,286.530984 C1153.24795,296.322042 1164.05851,304.097177 1176.73315,309.856622 C1189.40779,315.616068 1203.57336,318.495747 1219.23027,318.495747 C1233.39604,318.495747 1246.35008,315.136121 1258.09276,308.416768 C1269.83544,301.697415 1279.99364,292.770408 1288.56766,281.63548 L1314.2896,303.521264 Z M1537.20414,101.178654 L1463.39336,101.178654 L1463.39336,281.059538 C1463.39336,292.962392 1466.56197,302.177367 1472.89929,308.704739 C1479.23661,315.23211 1487.9969,318.495747 1499.1804,318.495747 C1505.51772,318.495747 1511.94814,317.631843 1518.47186,315.90401 C1524.99557,314.176176 1531.2396,311.968422 1537.20414,309.28068 L1540,340.381531 C1533.66268,342.685309 1526.39351,344.797074 1518.19227,346.716889 C1509.99103,348.636705 1502.72186,349.596598 1496.38454,349.596598 C1484.45547,349.596598 1474.20407,347.772801 1465.63005,344.125152 C1457.05603,340.477503 1450.15963,335.582048 1444.94066,329.438639 C1439.72169,323.295231 1435.90072,316.096032 1433.47763,307.840826 C1431.05453,299.585621 1429.843,290.658614 1429.843,281.059538 L1429.843,101.178654 L1373.92575,101.178654 L1373.92575,70 L1429.843,70 L1429.843,4.54747351e-13 L1463.39336,4.54747351e-13 L1463.39336,70 L1537.20414,70 L1537.20414,101.178654 Z" id="logotype"></path>
                <path d="M497.740865,76 C530.585695,76 560.783916,87.3291504 584.639431,106.29211 L559.938716,125.621489 L560.575089,126.353153 C542.936691,114.317794 521.615939,107.280734 498.651592,107.280734 C437.900267,107.280734 388.651592,156.529409 388.651592,217.280734 C388.651592,278.032059 437.900267,327.280734 498.651592,327.280734 C559.402916,327.280734 608.651592,278.032059 608.651592,217.280734 C608.651592,200.00819 604.67056,183.665466 597.576002,169.120069 L598.07428,169.701247 L622.268528,152.253392 C631.995623,171.295345 637.48173,192.863247 637.48173,215.712236 C637.48173,248.700061 626.046691,279.017635 606.923499,302.918843 L692,387.17339 L669.7396,409 L584.965343,324.872501 C561.059236,343.991776 530.73545,355.424471 497.740865,355.424471 C420.564112,355.424471 358,292.873177 358,215.712236 C358,138.551295 420.564112,76 497.740865,76 Z" id="search-icon-P" transform="translate(525.000000, 242.500000) scale(-1, 1) rotate(13.000000) translate(-525.000000, -242.500000) "></path>
            </g>
        </g>
    </g>
</svg>