<svg width="1540" height="443" viewBox="0 0 1540 443" fill="none" xmlns="http://www.w3.org/2000/svg">
<path fill-rule="evenodd" clip-rule="evenodd" d="M0 69.5198H33.5504V350H0V69.5198ZM165.749 274.724C172.832 288.931 183.27 299.778 197.063 307.265C210.856 314.752 225.394 318.496 240.678 318.496C247.761 318.496 254.844 317.344 261.927 315.04C269.01 312.736 275.347 309.473 280.939 305.249C286.53 301.025 291.097 295.938 294.638 289.987C298.18 284.035 299.951 277.22 299.951 269.541C299.951 257.254 296.13 248.039 288.488 241.896C280.845 235.752 271.433 230.953 260.249 227.497C249.066 224.041 236.764 221.066 223.344 218.57C209.924 216.074 197.622 212.235 186.439 207.051C175.255 201.868 165.842 194.668 158.2 185.453C150.558 176.238 146.737 163.184 146.737 146.289C146.737 133.234 149.347 121.908 154.566 112.309C159.785 102.71 166.588 94.7424 174.975 88.4071C183.363 82.0717 192.776 77.3682 203.214 74.2965C213.652 71.2248 224.276 69.6889 235.087 69.6889C256.335 69.6889 274.695 73.7205 290.165 81.7837C305.636 89.8469 317.658 102.518 326.232 119.796L296.036 138.226C289.699 125.939 281.777 116.628 272.272 110.293C262.766 103.957 250.371 100.79 235.087 100.79C229.122 100.79 222.878 101.75 216.354 103.67C209.831 105.589 203.959 108.277 198.74 111.733C193.521 115.188 189.141 119.604 185.6 124.979C182.058 130.355 180.288 136.498 180.288 143.409C180.288 155.312 184.109 164.143 191.751 169.903C199.393 175.662 208.805 180.174 219.989 183.437C231.172 186.701 243.474 189.485 256.894 191.789C270.314 194.092 282.616 197.836 293.8 203.019C304.983 208.203 314.396 215.69 322.038 225.481C329.68 235.272 333.501 249.191 333.501 267.237C333.501 281.06 330.985 293.058 325.952 303.233C320.92 313.408 314.023 321.951 305.263 328.863C296.502 335.774 286.53 340.957 275.347 344.413C264.163 347.869 252.421 349.597 240.119 349.597C217.752 349.597 197.342 345.181 178.89 336.35C160.437 327.519 146.178 313.888 136.113 295.458L165.749 274.724ZM1001.15 292.578C988.106 312.928 971.983 327.519 952.785 336.35C933.586 345.181 912.431 349.597 889.318 349.597C869.561 349.597 851.668 346.141 835.638 339.23C819.608 332.318 805.815 322.623 794.259 310.145C782.703 297.666 773.849 282.883 767.698 265.797C761.547 248.711 758.472 229.801 758.472 209.067C758.472 189.101 761.641 170.671 767.978 153.776C774.315 136.882 783.262 122.196 794.818 109.717C806.375 97.2381 819.981 87.4472 835.638 80.3439C851.295 73.2405 868.629 69.6889 887.641 69.6889C907.398 69.6889 924.826 73.2405 939.924 80.3439C955.021 87.4472 967.696 96.8541 977.947 108.565C988.199 120.276 995.934 133.618 1001.15 148.593C1006.37 163.568 1008.98 178.734 1008.98 194.092V218.282H792.022C792.022 225.577 793.42 234.888 796.216 246.215C799.012 257.542 804.138 268.581 811.593 279.332C819.049 290.083 829.021 299.298 841.509 306.977C853.997 314.656 870.12 318.496 889.878 318.496C907.026 318.496 923.614 314.272 939.644 305.825C955.674 297.378 967.975 285.859 976.549 271.269L1001.15 292.578ZM975.431 187.181C975.431 175.278 973.101 164.143 968.441 153.776C963.782 143.409 957.444 134.29 949.43 126.419C941.415 118.548 931.909 112.309 920.912 107.701C909.915 103.094 898.265 100.79 885.963 100.79C867.697 100.79 852.506 104.629 840.391 112.309C828.275 119.988 818.676 128.819 811.593 138.802C804.511 148.785 799.478 158.48 796.496 167.887C793.514 177.294 792.022 183.725 792.022 187.181H975.431ZM1314.29 303.521C1301.61 319.264 1287.26 330.878 1271.23 338.366C1255.2 345.853 1237.87 349.597 1219.23 349.597C1199.47 349.597 1181.21 346.141 1164.43 339.23C1147.66 332.318 1133.3 322.623 1121.38 310.145C1109.45 297.666 1100.13 282.883 1093.42 265.797C1086.71 248.711 1083.35 229.993 1083.35 209.643C1083.35 189.293 1086.71 170.575 1093.42 153.488C1100.13 136.402 1109.45 121.62 1121.38 109.141C1133.3 96.6621 1147.66 86.9672 1164.43 80.0559C1181.21 73.1446 1199.47 69.6889 1219.23 69.6889C1238.24 69.6889 1255.86 73.7205 1272.07 81.7837C1288.29 89.8469 1302.73 101.174 1315.41 115.764L1288.57 136.498C1278.88 125.363 1268.25 116.628 1256.69 110.293C1245.14 103.957 1232.65 100.79 1219.23 100.79C1203.57 100.79 1189.41 103.669 1176.73 109.429C1164.06 115.188 1153.25 122.964 1144.3 132.755C1135.35 142.546 1128.55 154.064 1123.89 167.311C1119.23 180.558 1116.9 194.668 1116.9 209.643C1116.9 224.617 1119.23 238.728 1123.89 251.974C1128.55 265.221 1135.35 276.74 1144.3 286.531C1153.25 296.322 1164.06 304.097 1176.73 309.857C1189.41 315.616 1203.57 318.496 1219.23 318.496C1233.4 318.496 1246.35 315.136 1258.09 308.417C1269.84 301.697 1279.99 292.77 1288.57 281.635L1314.29 303.521ZM1537.2 101.179H1463.39V281.06C1463.39 292.962 1466.56 302.177 1472.9 308.705C1479.24 315.232 1488 318.496 1499.18 318.496C1505.52 318.496 1511.95 317.632 1518.47 315.904C1525 314.176 1531.24 311.968 1537.2 309.281L1540 340.382C1533.66 342.685 1526.39 344.797 1518.19 346.717C1509.99 348.637 1502.72 349.597 1496.38 349.597C1484.46 349.597 1474.2 347.773 1465.63 344.125C1457.06 340.478 1450.16 335.582 1444.94 329.439C1439.72 323.295 1435.9 316.096 1433.48 307.841C1431.05 299.586 1429.84 290.659 1429.84 281.06V101.179H1373.93V70H1429.84V0H1463.39V70H1537.2V101.179Z" fill="white"/>
<path fill-rule="evenodd" clip-rule="evenodd" d="M514.106 74.1353C482.103 81.5238 455.227 99.3557 436.249 123.199L464.665 136.476L464.209 137.333C478.688 121.638 497.88 109.985 520.255 104.819C579.45 91.1531 638.515 128.061 652.181 187.255C665.847 246.45 628.939 305.515 569.745 319.181C510.55 332.847 451.485 295.939 437.819 236.744C433.934 219.915 434.136 203.095 437.777 187.327L437.422 188.005L409.923 176.447C404.729 197.189 404.235 219.438 409.375 241.702C416.796 273.844 434.758 300.812 458.767 319.799L394.825 421.032L421.424 437.292L485.101 336.25C512.696 349.502 544.814 353.82 576.963 346.398C652.162 329.037 699.051 254.015 681.694 178.832C664.336 103.649 589.305 56.7743 514.106 74.1353Z" fill="white"/>
</svg>
