<?xml version="1.0" encoding="UTF-8"?>
<svg width="1301px" height="369px" viewBox="0 0 1301 369" version="1.1" xmlns="http://www.w3.org/2000/svg" xmlns:xlink="http://www.w3.org/1999/xlink">
    <title>ISPECT-LOGOTYPE</title>
    <g id="brand-refresh" stroke="none" stroke-width="1" fill="none" fill-rule="evenodd">
        <g id="LOGOTYPERS" transform="translate(-250.000000, -183.000000)" fill="#1F2231">
            <g id="Group-2" transform="translate(250.000000, 183.000000)">
                <path d="M0,58.6953378 L28.3435133,58.6953378 L28.3435133,295.503687 L0,295.503687 L0,58.6953378 Z M440.737544,58.3961058 C504.920114,43.5783919 568.988838,83.7106327 583.839053,148.03398 C598.689268,212.357327 558.697497,276.513826 494.514927,291.33154 C467.075611,297.666405 439.657104,293.957895 416.096397,282.609479 L416.096397,282.609479 L361.78649,369.016742 L339.073355,355.09545 L393.610167,268.524248 C373.106758,252.271183 357.762178,229.193167 351.413418,201.693666 C347.015974,182.646246 347.427458,163.613456 351.851986,145.872088 L351.851986,145.872088 L375.330702,155.771605 L375.632436,155.194918 C372.532525,168.681469 372.367372,183.068299 375.69132,197.465903 C387.383379,248.109772 437.818383,279.709132 488.34106,268.045053 C538.863738,256.380974 570.342171,205.870407 558.650113,155.226538 C546.958054,104.582669 496.52305,72.983309 446.000373,84.6473881 C426.903307,89.0562933 410.527214,99.0154462 398.175054,112.434108 L398.175054,112.434108 L398.561927,111.703665 L374.300114,100.332472 C390.489521,79.9443662 413.422855,64.7021988 440.737544,58.3961058 Z M198.602339,58.838113 C216.55332,58.838113 232.063365,62.2419368 245.13294,69.0496864 C258.202514,75.857436 268.358838,86.5551677 275.602216,101.143203 L250.093054,116.703695 C244.739253,106.329982 238.047101,98.4687696 230.016399,93.1198235 C221.985697,87.7708774 211.514448,85.0964445 198.602339,85.0964445 C193.563467,85.0964445 188.288477,85.9068787 182.77721,87.5277715 C177.265944,89.1486642 172.305879,91.4178801 167.896866,94.335487 C163.487853,97.253094 159.787487,100.981091 156.795657,105.519591 C153.803826,110.058091 152.307934,115.24487 152.307934,121.080084 C152.307934,131.129619 155.535913,138.585614 161.991967,143.448292 C168.448022,148.31097 176.399873,152.120011 185.847758,154.875529 C195.295643,157.631047 205.68816,159.981306 217.025622,161.926377 C228.363084,163.871449 238.755602,167.032142 248.203487,171.408552 C257.651372,175.784963 265.603222,182.10635 272.059277,190.372903 C278.515332,198.639456 281.743311,210.390752 281.743311,225.627144 C281.743311,237.297572 279.617569,247.428 275.36602,256.018732 C271.114472,264.609463 265.288364,271.822328 257.887521,277.657542 C250.486677,283.492756 242.06244,287.8691 232.614555,290.786707 C223.16667,293.704314 213.246539,295.163096 202.853866,295.163096 C183.958096,295.163096 166.715964,291.435099 151.126954,283.978992 C135.537944,276.522885 123.492071,265.014719 114.988975,249.454149 L140.025745,231.948594 C146.009405,243.943201 154.827299,253.101108 166.47969,259.422589 C178.132082,265.744071 190.414148,268.904765 203.326258,268.904765 C209.309918,268.904765 215.293489,267.932244 221.277149,265.987172 C227.26081,264.042101 232.614531,261.286625 237.338473,257.72066 C242.062416,254.154696 245.920244,249.859395 248.912075,244.834627 C251.903905,239.80986 253.399798,234.055777 253.399798,227.572206 C253.399798,217.198492 250.171819,209.418324 243.715764,204.231467 C237.259709,199.04461 229.307859,194.992439 219.859974,192.074832 C210.412089,189.157225 200.019571,186.644879 188.682109,184.537718 C177.344647,182.430558 166.952129,179.188821 157.504244,174.81241 C148.056359,170.436 140.104509,164.357743 133.648454,156.577458 C127.192399,148.797173 123.96442,137.775267 123.96442,123.511411 C123.96442,112.48934 126.168894,102.926216 130.577907,94.8217524 C134.98692,86.7172886 140.734297,79.9906846 147.820211,74.6417384 C154.906124,69.2927923 162.857975,65.3216646 171.676001,62.7282362 C180.494027,60.1348078 189.469383,58.838113 198.602339,58.838113 Z M845.779226,247.022822 C834.756693,264.204285 821.136197,276.522885 804.917327,283.978992 C788.698458,291.435099 770.826477,295.163096 751.300848,295.163096 C734.609585,295.163096 719.493195,292.245533 705.951227,286.410319 C692.409258,280.575105 680.757042,272.389719 670.994227,261.853916 C661.231413,251.318113 653.751949,238.837426 648.555612,224.411481 C643.359276,209.985535 640.761146,194.019981 640.761146,176.514339 C640.761146,159.657054 643.438007,144.096717 648.791808,129.832861 C654.14561,115.569005 661.703805,103.169361 671.466619,92.6335581 C681.229434,82.0977552 692.724188,73.8313261 705.951227,67.8340229 C719.178266,61.8367197 733.822268,58.838113 749.883672,58.838113 C766.574936,58.838113 781.297669,61.8367197 794.052314,67.8340229 C806.806959,73.8313261 817.514401,81.7735815 826.174962,91.6610273 C834.835523,101.548473 841.370213,112.813509 845.779226,125.456472 C850.188239,138.099436 852.392712,150.904297 852.392712,163.871439 L852.392712,184.294585 L669.10466,184.294585 C669.10466,190.453978 670.285628,198.31519 672.647599,207.878457 C675.00957,217.441725 679.339786,226.761718 685.638376,235.838718 C691.936966,244.915717 700.361203,252.695886 710.911342,259.179457 C721.46148,265.663028 735.081976,268.904765 751.77324,268.904765 C766.259997,268.904765 780.274149,265.338854 793.816118,258.206926 C807.358086,251.074998 817.750604,241.349787 824.993982,229.031002 L845.779226,247.022822 Z M824.049199,158.036254 C824.049199,147.986719 822.080919,138.585682 818.1443,129.832861 C814.207681,121.08004 808.85396,113.380915 802.082976,106.735255 C795.311992,100.089594 787.28141,94.8217719 777.99099,90.9316293 C768.700569,87.0414866 758.85917,85.0964445 748.466497,85.0964445 C733.034951,85.0964445 720.201767,88.3381814 709.966558,94.8217524 C699.731349,101.305323 691.622036,108.761318 685.638376,117.189961 C679.654715,125.618603 675.403231,133.803989 672.883795,141.746363 C670.364359,149.688738 669.10466,155.118647 669.10466,158.036254 L824.049199,158.036254 Z M1110.31868,256.261864 C1099.61108,269.553185 1087.48648,279.359439 1073.94451,285.680921 C1060.40254,292.002403 1045.75854,295.163096 1030.01206,295.163096 C1013.3208,295.163096 997.889485,292.245533 983.717657,286.410319 C969.54583,280.575105 957.421226,272.389719 947.343482,261.853916 C937.265738,251.318113 929.392618,238.837426 923.723887,224.411481 C918.055156,209.985535 915.220833,194.182068 915.220833,177.000605 C915.220833,159.819141 918.055156,144.015674 923.723887,129.589728 C929.392618,115.163783 937.265738,102.683096 947.343482,92.1472927 C957.421226,81.6114898 969.54583,73.4261041 983.717657,67.5908902 C997.889485,61.7556763 1013.3208,58.838113 1030.01206,58.838113 C1046.07347,58.838113 1060.95366,62.2419368 1074.6531,69.0496864 C1088.35253,75.857436 1100.55586,85.4205598 1111.26347,97.7393448 L1088.58866,115.244899 C1080.40049,105.843721 1071.42513,98.4687696 1061.66232,93.1198235 C1051.8995,87.7708774 1041.34952,85.0964445 1030.01206,85.0964445 C1016.78502,85.0964445 1004.81788,87.5277472 994.110279,92.3904254 C983.402676,97.2531037 974.269857,103.817621 966.711549,112.084174 C959.153241,120.350727 953.405864,130.075938 949.469245,141.260098 C945.532627,152.444258 943.564347,164.357641 943.564347,177.000605 C943.564347,189.643568 945.532627,201.556951 949.469245,212.741111 C953.405864,223.925271 959.153241,233.650482 966.711549,241.917035 C974.269857,250.183588 983.402676,256.748105 994.110279,261.610784 C1004.81788,266.473462 1016.78502,268.904765 1030.01206,268.904765 C1041.97938,268.904765 1052.92302,266.068245 1062.8433,260.39512 C1072.76358,254.721995 1081.34528,247.184957 1088.58866,237.783779 L1110.31868,256.261864 Z M1298.63804,85.4247582 L1236.28231,85.4247582 L1236.28231,237.297514 C1236.28231,247.347049 1238.95917,255.127217 1244.31297,260.638253 C1249.66677,266.149288 1257.06751,268.904765 1266.51539,268.904765 C1271.86919,268.904765 1277.30165,268.175374 1282.81291,266.71657 C1288.32418,265.257767 1293.59917,263.393768 1298.63804,261.124518 L1301,287.38285 C1295.6462,289.327921 1289.50517,291.110876 1282.57672,292.731769 C1275.64827,294.352662 1269.50723,295.163096 1264.15343,295.163096 C1254.07569,295.163096 1245.41526,293.623271 1238.17188,290.543575 C1230.9285,287.463878 1225.10239,283.330664 1220.69338,278.143807 C1216.28437,272.95695 1213.05639,266.878694 1211.00935,259.908855 C1208.9623,252.939016 1207.9388,245.401978 1207.9388,237.297514 L1207.9388,85.4247582 L1160.69961,85.4247582 L1160.69961,59.1007374 L1207.9388,59.1007374 L1207.9388,3.97903932e-13 L1236.28231,3.97903932e-13 L1236.28231,59.1007374 L1298.63804,59.1007374 L1298.63804,85.4247582 Z" id="ISPECT-LOGOTYPE"></path>
            </g>
        </g>
    </g>
</svg>