<?xml version="1.0" encoding="UTF-8"?>
<svg width="164px" height="62px" viewBox="0 0 164 62" version="1.1" xmlns="http://www.w3.org/2000/svg" xmlns:xlink="http://www.w3.org/1999/xlink">
    <title>icontrol-logo</title>
    <g id="Page-1" stroke="none" stroke-width="1" fill="none" fill-rule="evenodd">
        <g id="icontrol-logo" fill-rule="nonzero">
            <ellipse id="Oval" fill="#6342B1" cx="30.872069" cy="31" rx="30.872069" ry="31"></ellipse>
            <g id="Group" transform="translate(16.548288, 13.380993)">
                <path d="M0,13.8543007 C0,5.8954772 6.6193152,0 14.7095893,0 C22.7998634,0 29.4191786,5.8954772 29.4191786,13.8543007 C29.4191786,28.0837125 14.7095893,36.4740158 14.7095893,36.4740158 C14.7095893,36.4740158 0,28.0837125 0,13.8543007 Z M14.7095893,11.442536 C12.0128313,11.442536 9.8063929,13.6131242 9.8063929,16.2660654 C9.8063929,18.9190066 12.0128313,21.0895948 14.7095893,21.0895948 C17.4063473,21.0895948 19.6127857,18.9190066 19.6127857,16.2660654 C19.6127857,13.6131242 17.4063473,11.442536 14.7095893,11.442536 L14.7095893,11.442536 Z" id="Shape" fill="#FFFFFF"></path>
                <text id="iControl" font-family="AvertaCYW10-Semibold, Averta CY W10" font-size="24" font-weight="500" fill="#000000">
                    <tspan x="56.26452" y="27.1480836">iControl</tspan>
                </text>
            </g>
        </g>
    </g>
</svg>