<svg height="62" viewBox="0 0 177 62" width="177" xmlns="http://www.w3.org/2000/svg"><g fill="none"><ellipse cx="30.872069" cy="31" fill="#6342b1" rx="30.872069" ry="31"/><g fill="#fff"><path d="m16.548288 27.2352941c0-7.9588235 6.6193152-13.8543007 14.7095893-13.8543007s14.7095893 5.8954772 14.7095893 13.8543007c0 14.2294118-14.7095893 22.6197151-14.7095893 22.6197151s-14.7095893-8.3903033-14.7095893-22.6197151zm14.7095893-2.4117647c-2.696758 0-4.9031964 2.1705882-4.9031964 4.8235294s2.2064384 4.8235294 4.9031964 4.8235294 4.9031964-2.1705882 4.9031964-4.8235294-2.2064384-4.8235294-4.9031964-4.8235294z"/><g transform="translate(75.866211 21.246094)"><path d="m0 1.89160156c0-1.26106771.70247396-1.89160156 2.10742188-1.89160156 1.40494791 0 2.10742187.63053385 2.10742187 1.89160156 0 .60091146-.17561849 1.06852214-.52685547 1.40283203-.35123698.3343099-.87809245.50146485-1.5805664.50146485-1.40494792 0-2.10742188-.63476563-2.10742188-1.90429688zm4.03710938 17.86230464h-3.87207032v-14.19335932h3.87207032z"/><path d="m16.2880859 4.20214844c-1.4811198 0-2.6279297.55647786-3.4404297 1.66943359s-1.21875 2.66389974-1.21875 4.65283207c0 4.1386718 1.5530599 6.2080078 4.6591797 6.2080078 1.3033855 0 2.881836-.3258464 4.7353516-.9775391v3.3007813c-1.5234375.6347656-3.2246094.9521484-5.1035156.9521484-2.6998698 0-4.764974-.8188477-6.19531252-2.456543-1.43033855-1.6376953-2.14550782-3.988444-2.14550782-7.0522461 0-1.92968746.35123698-3.62027991 1.05371094-5.07177731.70247396-1.45149739 1.7117513-2.56445312 3.027832-3.33886718 1.3160808-.77441407 2.8585612-1.1616211 4.6274414-1.1616211 1.8027344 0 3.6139323.4358724 5.4335938 1.30761719l-1.2695313 3.19921875c-.6940104-.33007813-1.3922526-.61783854-2.0947265-.86328125-.702474-.24544271-1.3922526-.36816406-2.069336-.36816406z"/><path d="m27.7519531 12.6318359c0 1.404948.2306315 2.4671224.6918946 3.1865235.461263.719401 1.2124023 1.0791015 2.2534179 1.0791015 1.0325521 0 1.7752279-.3575846 2.2280274-1.0727539.4527994-.7151692.6791992-1.7794596.6791992-3.1928711 0-1.4049479-.2285156-2.4586588-.6855469-3.16113278-.4570312-.70247395-1.2060547-1.05371093-2.2470703-1.05371093-1.0325521 0-1.7773438.34912109-2.234375 1.04736328-.4570312.69824223-.6855469 1.75406903-.6855469 3.16748043zm9.8134766 0c0 2.3105469-.609375 4.1175131-1.828125 5.4208985s-2.9156901 1.9550781-5.0908203 1.9550781c-1.3626302 0-2.5644532-.2983398-3.6054688-.8950195s-1.8408203-1.4536133-2.399414-2.5708008c-.5585938-1.1171875-.8378907-2.4205729-.8378907-3.9101563 0-2.3190104.6051433-4.12174475 1.8154297-5.40820309 1.2102865-1.28645833 2.9114584-1.9296875 5.1035156-1.9296875 1.3626303 0 2.5644532.29622396 3.6054688.88867188 1.0410156.59244791 1.8408203 1.44303385 2.3994141 2.55175781.5585937 1.10872396.8378906 2.4078776.8378906 3.8974609z"/><path d="m53.8662109 19.7539062h-3.8720703v-8.290039c0-1.0240886-.1819661-1.79215496-.5458984-2.30419923s-.9436849-.76806641-1.7392578-.76806641c-1.0833334 0-1.866211.36181641-2.3486328 1.08544922-.4824219.72363282-.7236328 1.92333982-.7236328 3.59912112v6.6777343h-3.8720704v-14.19335932h2.9580078l.5205079 1.81542968h.2158203c.4316406-.68554687 1.0262044-1.2039388 1.7836914-1.55517578s1.6186523-.52685547 2.5834961-.52685547c1.6503906 0 2.9029948.44645183 3.7578125 1.33935547.8548177.89290365 1.2822265 2.18147787 1.2822265 3.86572262z"/><path d="m63.8320312 16.9228516c.6770834 0 1.4895834-.148112 2.4375-.444336v2.881836c-.9648437.4316406-2.1497395.6474609-3.5546874.6474609-1.5488282 0-2.6765951-.3914388-3.3833008-1.1743164-.7067058-.7828776-1.0600586-1.957194-1.0600586-3.5229492v-6.84277346h-1.8535156v-1.63769532l2.1328124-1.29492187 1.1171876-2.99609375h2.4755859v3.02148438h3.9736328v2.90722656h-3.9736328v6.84277346c0 .5501302.1544596.9563802.4633789 1.21875s.7172852.3935547 1.2250976.3935547z"/><path d="m77.0605469 5.29394531c.5247396 0 .960612.03808594 1.3076172.11425781l-.2919922 3.63085938c-.3131511-.08463542-.6940104-.12695312-1.1425781-.12695312-1.2356771 0-2.198405.31738281-2.8881836.95214843-.6897787.63476559-1.034668 1.52343749-1.034668 2.66601559v7.2236328h-3.8720703v-14.19335932h2.9326172l.571289 2.38671874h.1904297c.4401042-.79557291 1.034668-1.43668619 1.7836914-1.92333984.7490235-.48665364 1.5636393-.72998047 2.4438477-.72998047z"/><path d="m83.5097656 12.6318359c0 1.404948.2306315 2.4671224.6918946 3.1865235.461263.719401 1.2124023 1.0791015 2.2534179 1.0791015 1.0325521 0 1.7752279-.3575846 2.2280274-1.0727539.4527994-.7151692.6791992-1.7794596.6791992-3.1928711 0-1.4049479-.2285156-2.4586588-.6855469-3.16113278-.4570312-.70247395-1.2060547-1.05371093-2.2470703-1.05371093-1.0325521 0-1.7773437.34912109-2.234375 1.04736328-.4570313.69824223-.6855469 1.75406903-.6855469 3.16748043zm9.8134766 0c0 2.3105469-.609375 4.1175131-1.828125 5.4208985s-2.9156901 1.9550781-5.0908203 1.9550781c-1.3626302 0-2.5644531-.2983398-3.6054688-.8950195-1.0410156-.5966797-1.8408203-1.4536133-2.399414-2.5708008-.5585938-1.1171875-.8378907-2.4205729-.8378907-3.9101563 0-2.3190104.6051433-4.12174475 1.8154297-5.40820309 1.2102865-1.28645833 2.9114584-1.9296875 5.1035157-1.9296875 1.3626302 0 2.5644531.29622396 3.6054687.88867188 1.0410156.59244791 1.8408203 1.44303385 2.3994141 2.55175781.5585937 1.10872396.8378906 2.4078776.8378906 3.8974609z"/><path d="m100.394531 19.7539062h-3.8720701v-19.7539062h3.8720701z"/></g></g></g></svg>